 http://www.nautilus-bt.org/index.php?topic=2115.0

DUAL AUDIO
ITALIANO
ENGLISH

 
http://www.imagebam.com/image/29470c137843331 
http://www.imagebam.com/image/a7773f137843339 
http://www.imagebam.com/image/7c10f0137843354

Hot Shots!


Hot Shots! is a 1991 comedy spoof starring Charlie Sheen, Carey Elwes, Valeria Golino, Lloyd Bridges, Kevin Dunn and Jon Cryer. It was directed by Jim Abrahams, co-director of Airplane!








Plot

Hot Shots has been described as "Top Gun meets Airplane!".[2] The film begins at Flemner Air Base 20 years prior. A pilot named Leland "Buzz" Harley (Bill Irwin) loses control of his plane and ejects, leaving his co-pilot Dominic "Mailman" Farnum (Ryan Stiles) to crash alone; although Mailman survives, he's mistaken for a deer owing to the branches stuck to his helmet and is shot by a hunter. Topper Harley (Charlie Sheen) wakes up from a nightmare he's having about the event when Lt. Commander Block (Kevin Dunn) asks him to return to active duty as a pilot in the U.S. Navy, to help in on a new top secret mission: Operation Sleepy Weasel. Harley starts to show some psychological problems, especially when his father is mentioned. His therapist, Ramada (Valeria Golino), tries to keep Topper from flying, but he relents, and also starts to build a budding romance with her. Meanwhile, Topper gets into a rivalry with another fighter pilot, Kent Gregory (Cary Elwes), who hates Topper because of the loss of his father "Mailman" to Buzz Harley, and believes Topper may do the same to him.

Meanwhile, Block starts privately meeting with an airplane tycoon, Mr. Wilson, who has recently built a new "Super Fighter" that will make the American pilots superior. Block reveals that he brought back Topper for the reason of making Sleepy Weasel fail. Block would then report that it was the Navy's planes that were the real reason for the mission failure and that they need to be replaced with Wilson's planes. During one of the last training missions, an unfortunate accident between Pete "Dead Meat" Thompson (William O'Leary) and Jim "Wash-Out" Pfaffenbach (Jon Cryer) occurs, leaving Dead Meat dead and Wash Out reassigned to radar operator. Block believes this is enough to convince the Navy to buy new fighters, but Wilson brushes it aside as a "minor incident," and the planes need to fail in combat to take notice........

[b]Parody

9½ Weeks
Superman I
Rocky II
Gone with the wind
An Officer and a Gentleman
Dances with Wolves
Rambo
The Crying Game
The Dirty Dozen
[/b]

Info

Directed by Jim Abrahams
Produced by Bill Badalato
Pat Proft
Written by Jim Abrahams
Pat Proft
Starring Charlie Sheen
Carey Elwes
Valeria Golino
Lloyd Bridges
Jon Cryer
Kevin Dunn
Bill Irwin
Cinematography Bill Butler
Editing by Jane Kurson
Eric A. Sears
Distributed by 20th Century Fox
Release date(s) July 31, 1991
Running time 84 min.
Country United States


Cast

Charlie Sheen: Topper Harley
Valeria Golino: Ramada Thompson
Cary Elwes: Kent Gregory
Lloyd Bridges: ammiraglio Thomas "Tug" Benson
Kevin Dunn: comandante James Block
Jon Cryer: Jim "Guardone" Pfaffenbach
William O'Leary: Pete "Carne Morta" Thompson
Bill Irwin: Buzz Harley
Efrem Zimbalist Jr.: Wilson





General
Complete name : Hot Shots 1991 720p HDTV x264.mkv
Format : Matroska
File size : 4.37 GiB
Duration : 1h 24mn
Overall bit rate : 7 376 Kbps
Encoded date : UTC 2011-06-24 07:19:39
Writing application : mkvmerge v4.3.0 ('Escape from the Island') built on Sep 5 2010 10:30:51
Writing library : libebml v1.0.0 + libmatroska v1.0.0

Video
ID : 1
Format : AVC
Format/Info : Advanced Video Codec
Format profile : High@L4.0
Format settings, CABAC : Yes
Format settings, ReFrames : 4 frames
Muxing mode : Header stripping
Codec ID : V_MPEG4/ISO/AVC
Duration : 1h 24mn
Bit rate mode : Variable
Bit rate : 6 994 Kbps
Maximum bit rate : 24.0 Mbps
Width : 1 280 pixels
Height : 688 pixels
Display aspect ratio : 1.860
Frame rate : 23.976 fps
Color space : YUV
Chroma subsampling : 4:2:0
Bit depth : 8 bits
Scan type : Progressive
Bits/(Pixel*Frame) : 0.331
Stream size : 4.06 GiB (93%)
Writing library : x264 core 70 r1206M 9a54c48


Audio #1
ID : 2
Format : AC-3
Format/Info : Audio Coding 3
Mode extension : CM (complete main)
Muxing mode : Header stripping
Codec ID : A_AC3
Duration : 1h 24mn
Bit rate mode : Constant
Bit rate : 192 Kbps
Channel(s) : 6 channels
Channel positions : Front: L C R, Side: L R, LFE
Sampling rate : 48.0 KHz
Bit depth : 16 bits
Video delay : 10s 300ms
Stream size : 117 MiB (3%)
Title : Ita Ac3
Language : Italian

Audio #2
ID : 3
Format : AC-3
Format/Info : Audio Coding 3
Mode extension : CM (complete main)
Muxing mode : Header stripping
Codec ID : A_AC3
Duration : 1h 24mn
Bit rate mode : Constant
Bit rate : 192 Kbps
Channel(s) : 6 channels
Channel positions : Front: L C R, Side: L R, LFE
Sampling rate : 48.0 KHz
Bit depth : 16 bits
Stream size : 117 MiB (3%)
Title : Eng Ac3
Language : English